<svg width="154" height="154" viewBox="0 0 154 154" fill="none" xmlns="http://www.w3.org/2000/svg">
<path fill-rule="evenodd" clip-rule="evenodd" d="M77.0001 0.916748C34.9813 0.916748 0.916748 34.9813 0.916748 77.0001C0.916748 119.019 34.9813 153.083 77.0001 153.083C119.019 153.083 153.083 119.019 153.083 77.0001C153.083 34.9813 119.019 0.916748 77.0001 0.916748ZM102.64 61.1402C103.9 59.8357 104.597 58.0885 104.581 56.275C104.566 54.4614 103.838 52.7267 102.556 51.4443C101.274 50.1618 99.5387 49.4344 97.7252 49.4187C95.9117 49.4029 94.1645 50.1001 92.86 51.36L77.0001 67.2199L61.1402 51.36C60.5021 50.6994 59.7389 50.1725 58.895 49.81C58.0512 49.4475 57.1436 49.2567 56.2252 49.2487C55.3068 49.2407 54.396 49.4157 53.546 49.7635C52.696 50.1113 51.9237 50.6248 51.2743 51.2743C50.6248 51.9237 50.1113 52.696 49.7635 53.546C49.4157 54.396 49.2407 55.3068 49.2487 56.2252C49.2567 57.1436 49.4475 58.0512 49.81 58.895C50.1725 59.7389 50.6994 60.5021 51.36 61.1402L67.2199 77.0001L51.36 92.86C50.6994 93.498 50.1725 94.2613 49.81 95.1051C49.4475 95.949 49.2567 96.8566 49.2487 97.775C49.2407 98.6934 49.4157 99.6041 49.7635 100.454C50.1113 101.304 50.6248 102.076 51.2743 102.726C51.9237 103.375 52.696 103.889 53.546 104.237C54.396 104.584 55.3068 104.759 56.2252 104.751C57.1436 104.744 58.0512 104.553 58.895 104.19C59.7389 103.828 60.5021 103.301 61.1402 102.64L77.0001 86.7803L92.86 102.64C94.1645 103.9 95.9117 104.597 97.7252 104.581C99.5387 104.566 101.274 103.838 102.556 102.556C103.838 101.274 104.566 99.5387 104.581 97.7252C104.597 95.9117 103.9 94.1645 102.64 92.86L86.7803 77.0001L102.64 61.1402Z" fill="#FF003D"/>
</svg>
