<svg width="139" height="85" viewBox="0 0 139 85" fill="none" xmlns="http://www.w3.org/2000/svg">
<path d="M90.1058 36.5539H138.227V48.4191H90.1058V36.5539ZM96.9802 60.2842H138.227V72.1494H96.9802V60.2842ZM83.2314 12.8236H138.227V24.6888H83.2314V12.8236ZM14.4875 84.0145H83.2314V78.0819C83.2314 61.7258 67.8122 48.4191 48.8595 48.4191H35.1107C16.158 48.4191 0.73877 61.7258 0.73877 78.0819V84.0145H14.4875ZM41.9851 42.4865C55.6995 42.4865 66.0454 33.558 66.0454 21.7225C66.0454 9.88702 55.6995 0.958496 41.9851 0.958496C28.2707 0.958496 17.9247 9.88702 17.9247 21.7225C17.9247 33.558 28.2707 42.4865 41.9851 42.4865Z" fill="#4ECB71"/>
</svg>
